<?xml version="1.0" standalone="no"?><!DOCTYPE svg PUBLIC "-//W3C//DTD SVG 1.1//EN" "http://www.w3.org/Graphics/SVG/1.1/DTD/svg11.dtd"><svg t="1674808680442" class="icon" viewBox="0 0 1024 1024" version="1.1" xmlns="http://www.w3.org/2000/svg" p-id="4699" xmlns:xlink="http://www.w3.org/1999/xlink" width="64" height="64"><path d="M281.834862 848.636086H172.232416c-18.788991 0-37.577982-15.657492-37.577982-37.577982s15.657492-37.577982 37.577982-37.577982H281.834862c18.788991 0 37.577982 15.657492 37.577982 37.577982s-18.788991 37.577982-37.577982 37.577982zM764.085627 814.189602c-9.394495 0-18.788991-3.131498-25.051988-9.394495l-72.024465-62.629969c-15.657492-12.525994-15.657492-37.577982-3.131498-53.235474s37.577982-15.657492 53.235474-3.131499l72.024465 62.62997c15.657492 12.525994 15.657492 37.577982 3.131498 53.235474-9.394495 6.262997-18.788991 12.525994-28.183486 12.525993z" fill="#303133" p-id="4700"></path><path d="M692.061162 748.428135c-18.788991 0-37.577982-15.657492-37.577982-37.577982v-159.706422c0-18.788991 15.657492-37.577982 37.577982-37.577982s37.577982 15.657492 37.577982 37.577982v159.706422c0 21.920489-18.788991 37.577982-37.577982 37.577982z" fill="#303133" p-id="4701"></path><path d="M692.061162 1005.211009c-169.100917 0-306.88685-137.785933-306.88685-306.88685s137.785933-306.88685 306.88685-306.88685 306.88685 137.785933 306.88685 306.88685-137.785933 306.88685-306.88685 306.88685z m0-538.617737c-128.391437 0-231.730887 103.33945-231.730887 231.730887s103.33945 231.730887 231.730887 231.730887 231.730887-103.33945 231.730887-231.730887-103.33945-231.730887-231.730887-231.730887z" fill="#303133" p-id="4702"></path><path d="M244.256881 682.666667H147.180428c-65.761468 0-122.12844-53.235474-122.12844-122.128441v-407.094801C25.051988 87.681957 81.41896 31.314985 147.180428 31.314985h641.957187c65.761468 0 122.12844 53.235474 122.12844 122.12844v137.785933c0 18.788991-15.657492 37.577982-37.577982 37.577981s-37.577982-15.657492-37.577981-37.577981V153.443425c0-28.183486-21.920489-46.972477-46.972477-46.972477H147.180428c-28.183486 0-46.972477 21.920489-46.972477 46.972477v407.094801c0 28.183486 21.920489 46.972477 46.972477 46.972477h97.076453c18.788991 3.131498 37.577982 18.788991 37.577981 40.70948s-18.788991 34.446483-37.577981 34.446484z" fill="#303133" p-id="4703"></path></svg>